<svg width="32" height="32" viewBox="0 0 32 32" fill="none" xmlns="http://www.w3.org/2000/svg">
    <path d="M18.6666 3.02597V8.53336C18.6666 9.28009 18.6666 9.65346 18.812 9.93867C18.9398 10.1896 19.1438 10.3935 19.3947 10.5214C19.6799 10.6667 20.0532 10.6667 20.8 10.6667H26.3074M26.6666 13.3177V22.9334C26.6666 25.1736 26.6666 26.2937 26.2307 27.1493C25.8472 27.902 25.2353 28.5139 24.4826 28.8974C23.627 29.3334 22.5069 29.3334 20.2666 29.3334H11.7333C9.4931 29.3334 8.373 29.3334 7.51735 28.8974C6.7647 28.5139 6.15278 27.902 5.76929 27.1493C5.33331 26.2937 5.33331 25.1736 5.33331 22.9334V9.06669C5.33331 6.82648 5.33331 5.70637 5.76929 4.85073C6.15278 4.09808 6.7647 3.48615 7.51735 3.10266C8.373 2.66669 9.4931 2.66669 11.7333 2.66669H16.0157C16.994 2.66669 17.4832 2.66669 17.9436 2.77721C18.3517 2.87519 18.7419 3.03681 19.0998 3.25613C19.5035 3.50349 19.8494 3.8494 20.5412 4.5412L24.7921 8.79217C25.4839 9.48398 25.8298 9.82988 26.0772 10.2335C26.2965 10.5914 26.4581 10.9816 26.5561 11.3898C26.6666 11.8501 26.6666 12.3393 26.6666 13.3177Z" stroke="#414141" stroke-width="2" stroke-linecap="round" stroke-linejoin="round"/>
    <path d="M10.8713 23.3536C10.8831 23.3337 10.8952 23.3139 10.9075 23.2942C11.8105 21.8588 12.3333 20.1612 12.3333 18.3333C12.3333 16.8606 13.5272 15.6667 14.9999 15.6667C16.4727 15.6667 17.6666 16.8606 17.6666 18.3333C17.6666 19.0114 17.6204 19.6791 17.5311 20.3333M16.1195 24.8957C16.5273 24.0817 16.8616 23.2246 17.1138 22.3333M19.6731 23.088C20.1031 21.5771 20.3333 19.9821 20.3333 18.3333C20.3333 15.3878 17.9455 13 15 13C14.0286 13 13.1178 13.2597 12.3333 13.7135M9 21.2428C9.42711 20.3636 9.66667 19.3764 9.66667 18.3333C9.66667 17.3619 9.92638 16.4511 10.3802 15.6667M14.9999 18.3333C14.9999 20.6781 14.3274 22.8659 13.1647 24.7141" stroke="#8C8C8C" stroke-width="2" stroke-linecap="round" stroke-linejoin="round"/>
</svg>
