<svg width="36" height="36" viewBox="0 0 36 36" fill="none" xmlns="http://www.w3.org/2000/svg">
<circle cx="18" cy="18" r="18" fill="#A4C8FF"/>
<path d="M20 8.26953V12.4001C20 12.9601 20 13.2401 20.109 13.4541C20.2049 13.6422 20.3578 13.7952 20.546 13.8911C20.7599 14.0001 21.0399 14.0001 21.6 14.0001H25.7305M22 24.5L20.5 23M20 8H14.8C13.1198 8 12.2798 8 11.638 8.32698C11.0735 8.6146 10.6146 9.07354 10.327 9.63803C10 10.2798 10 11.1198 10 12.8V23.2C10 24.8802 10 25.7202 10.327 26.362C10.6146 26.9265 11.0735 27.3854 11.638 27.673C12.2798 28 13.1198 28 14.8 28H21.2C22.8802 28 23.7202 28 24.362 27.673C24.9265 27.3854 25.3854 26.9265 25.673 26.362C26 25.7202 26 24.8802 26 23.2V14L20 8ZM21.5 20.5C21.5 22.433 19.933 24 18 24C16.067 24 14.5 22.433 14.5 20.5C14.5 18.567 16.067 17 18 17C19.933 17 21.5 18.567 21.5 20.5Z" stroke="#414141" stroke-width="2" stroke-linecap="round" stroke-linejoin="round"/>
</svg>
