<svg width="20" height="20" viewBox="0 0 20 20" fill="none" xmlns="http://www.w3.org/2000/svg">
<g clip-path="url(#clip0_125_478)">
<path d="M7.49996 10L9.16663 11.6667L12.9166 7.91669M6.11143 3.18227C6.78129 3.12881 7.41722 2.8654 7.92868 2.42954C9.12223 1.4124 10.8777 1.4124 12.0712 2.42954C12.5827 2.8654 13.2186 3.12881 13.8885 3.18227C15.4517 3.30701 16.693 4.54831 16.8177 6.11149C16.8712 6.78136 17.1346 7.41728 17.5704 7.92874C18.5876 9.12229 18.5876 10.8778 17.5704 12.0713C17.1346 12.5828 16.8712 13.2187 16.8177 13.8885C16.693 15.4517 15.4517 16.693 13.8885 16.8178C13.2186 16.8712 12.5827 17.1346 12.0712 17.5705C10.8777 18.5876 9.12223 18.5876 7.92868 17.5705C7.41722 17.1346 6.78129 16.8712 6.11143 16.8178C4.54825 16.693 3.30695 15.4517 3.18221 13.8885C3.12875 13.2187 2.86534 12.5828 2.42948 12.0713C1.41234 10.8778 1.41234 9.12229 2.42948 7.92874C2.86534 7.41728 3.12875 6.78136 3.18221 6.11149C3.30695 4.54831 4.54825 3.30701 6.11143 3.18227Z" stroke="#A0AEC0" stroke-width="2" stroke-linecap="round" stroke-linejoin="round"/>
</g>
<defs>
<clipPath id="clip0_125_478">
<rect width="20" height="20" fill="white"/>
</clipPath>
</defs>
</svg>
